<svg xmlns="http://www.w3.org/2000/svg" width="634" height="124" viewBox="0 0 634 124">
  <g id="mka_plus_logo-revise" data-name="mka plus logo-revise" transform="translate(-49.68 -50.62)">
    <path id="Path_1" data-name="Path 1" d="M268.22,64.41h9.1v96.33h-10.2V89.162L236,160.74h-7.8L196.9,89.675l.1,71.065H186.8V64.41h9.1l36.4,83.144Z" transform="translate(0.317 0)" fill="#072247"/>
    <path id="Path_2" data-name="Path 2" d="M363.92,160.84h-14.4l-49.3-45.9v45.9h-11V64.41h11V108.7l47.1-44.289h14l-50,47.007Z" transform="translate(0.538)" fill="#072247"/>
    <path id="Path_3" data-name="Path 3" d="M455.12,160.84l-10.5-24.762h-50L384,160.84H372.6l42-96.43h9.7l42.1,96.329H455.1Zm-56.6-34.022h42.2l-21.1-49.524Z" transform="translate(0.75)" fill="#072247"/>
    <path id="Path_4" data-name="Path 4" d="M475.42,64.41h35.4q14.1,0,22.2,6.945c5.4,4.63,8.1,10.972,8.1,19.125s-2.8,14.495-8.2,19.226-12.8,7.046-22.1,7.046H481V160.84h-5.5V64.41Zm35.2,46.705c7.9,0,13.9-1.812,18.1-5.436s6.3-8.657,6.3-15.3-2.1-11.676-6.3-15.3-10.2-5.436-18.1-5.436h-29.7v41.37h29.7Z" transform="translate(0.94)" fill="#f16541"/>
    <path id="Path_5" data-name="Path 5" d="M552.72,160.84V64.41H558v96.43Z" transform="translate(1.004)" fill="#f16541"/>
    <path id="Path_6" data-name="Path 6" d="M622.22,92v67.2h-5.4V146.5a24.22,24.22,0,0,1-9.3,10.2,26.809,26.809,0,0,1-13.8,3.6c-7.7,0-13.6-2.2-17.6-6.5s-6.1-10.7-6.1-19.2V92h5.5v41.9c0,7.1,1.5,12.3,4.4,15.7s7.4,5,13.4,5c7.1,0,12.7-2.2,17-6.7s6.4-10.3,6.4-17.7V92Z" transform="translate(1.253 0.63)" fill="#f16541"/>
    <path id="Path_7" data-name="Path 7" d="M632.32,151l2.6-4.7a34.469,34.469,0,0,0,10.6,6.4,37.118,37.118,0,0,0,12.3,1.8c6,0,10.6-1.1,13.7-3.2a10.49,10.49,0,0,0,4.7-9.2,9.88,9.88,0,0,0-3.1-7.7c-2.1-1.9-5.4-3.5-9.9-4.6l-11.4-2.7a25.21,25.21,0,0,1-12.4-6.6,15.48,15.48,0,0,1-4.7-11,16.84,16.84,0,0,1,6.5-13.8c4.3-3.5,10.2-5.2,17.5-5.2a35.08,35.08,0,0,1,13.1,2.4,23.39,23.39,0,0,1,9.6,6.7l-2.7,4.8a33.679,33.679,0,0,0-9.4-6.3,26.39,26.39,0,0,0-10.6-2.1c-5.6,0-10,1.1-13.1,3.4a10.88,10.88,0,0,0-4.6,9.4,11.35,11.35,0,0,0,3,8.2c2,2.1,5,3.6,9.1,4.6l11.6,2.8c5.9,1.3,10.4,3.5,13.3,6.5a14.77,14.77,0,0,1,4.4,11,15.92,15.92,0,0,1-6.8,13.3c-4.5,3.4-10.6,5.1-18.2,5.1C646.72,160.21,638.42,157.11,632.32,151Z" transform="translate(1.253 0.63)" fill="#f16541"/>
    <path id="Path_8" data-name="Path 8" d="M94.52,104.762l11.53-6.677,24.37,13.887.16,46.958,10.59-6.2-.21-61.519-10.62-6.163.04,14.572-13.51-7.8,18.19-10.534,11.07,6.294.21,62.134,10.48-6.082-.12-62.4L134.77,68.64,94.53,92.315Z" fill="#112346"/>
    <path id="Path_9" data-name="Path 9" d="M125.5,161.28l-.19-46.61-10.7-6.19-.03,13.3L90.43,135.96,50,112.74,50.02,125,103,155.41l10.62-6.13-12.55-7.21,13.48-7.81-.06,20.99-10.95,6.45L50.03,130.97l-.02,12.1,53.68,30.92Z" transform="translate(0 0.63)" fill="#112346"/>
    <path id="Path_10" data-name="Path 10" d="M100.8,123.86l-11.48-6.72-.1-28.01,40.42-23.25-10.6-6.15L66.09,90.2l-.05,12.26,12.54-7.21-.03,15.57-18.1-10.61L60.39,87.5l53.48-30.77-10.44-6.11L49.68,81.45l.01,25.24,40.37,23.29Z" fill="#112346"/>
  </g>
</svg>
